<svg width="29" height="28" viewBox="0 0 29 28" fill="none" xmlns="http://www.w3.org/2000/svg">
<path d="M3.12501 9.625H25.875M2.43704 10.2927L13.7984 25.0288C13.8809 25.1365 13.9872 25.2237 14.1088 25.2837C14.2305 25.3437 14.3643 25.3749 14.5 25.3749C14.6357 25.3749 14.7695 25.3437 14.8912 25.2837C15.0129 25.2237 15.1191 25.1365 15.2017 25.0288L26.563 10.2927C26.6747 10.1473 26.7395 9.97129 26.7488 9.78814C26.7581 9.60498 26.7114 9.42333 26.6149 9.26734L22.7611 3.04664C22.6818 2.91791 22.5708 2.81159 22.4388 2.73779C22.3068 2.664 22.1582 2.62517 22.007 2.625H6.99306C6.84184 2.62517 6.69317 2.664 6.56118 2.73779C6.42919 2.81159 6.31826 2.91791 6.23892 3.04664L2.38509 9.26734C2.28865 9.42333 2.24197 9.60498 2.25125 9.78814C2.26053 9.97129 2.32533 10.1473 2.43704 10.2927V10.2927Z" stroke="#0DB760" stroke-width="1.5" stroke-linecap="round" stroke-linejoin="round"/>
<path d="M22.375 3.5L19.75 9.625L14.5 2.625M6.625 3.5L9.25 9.625L14.5 2.625M14.5 24.5L9.25 9.625M14.5 24.5L19.75 9.625" stroke="#0DB760" stroke-width="1.5" stroke-linecap="round" stroke-linejoin="round"/>
</svg>
