<svg width="19" height="18" viewBox="0 0 19 18" fill="none" xmlns="http://www.w3.org/2000/svg">
<path fill-rule="evenodd" clip-rule="evenodd" d="M15.6086 15.4908C16.0015 15.098 16.3078 14.6274 16.5082 14.1092C16.7011 13.6131 16.833 13.0461 16.8709 12.2158C16.9088 11.3839 16.9178 11.1183 16.9178 8.99996C16.9178 6.88163 16.9088 6.61589 16.8709 5.78405C16.833 4.9538 16.7011 4.38683 16.5082 3.89069C16.3124 3.37024 16.0054 2.89876 15.6086 2.50915C15.219 2.11229 14.7475 1.8052 14.227 1.60931C13.7308 1.41662 13.1638 1.28479 12.3336 1.24704C11.5018 1.20893 11.2361 1.19995 9.11776 1.19995C6.9994 1.19995 6.73368 1.20893 5.90186 1.2469C5.0716 1.28479 4.50462 1.41662 4.00848 1.60945C3.48803 1.80532 3.01656 2.11234 2.62695 2.50913C2.23007 2.89871 1.92297 3.37018 1.72704 3.89065C1.53436 4.38683 1.40253 4.9538 1.36478 5.78405C1.32666 6.61589 1.31769 6.8816 1.31769 8.99996C1.31769 11.1183 1.32666 11.3841 1.36478 12.2158C1.40268 13.0461 1.53452 13.6131 1.72734 14.1092C1.92321 14.6298 2.23023 15.1011 2.62702 15.4908C3.01662 15.8876 3.48809 16.1946 4.00854 16.3904C4.50472 16.5832 5.0717 16.7151 5.90192 16.753C6.73386 16.791 6.99948 16.8 9.11783 16.8C11.2362 16.8 11.5019 16.791 12.3337 16.753C13.164 16.7151 13.731 16.5832 14.227 16.3904C14.7452 16.19 15.2158 15.8836 15.6086 15.4908ZM2.51708 8.0819C2.51738 8.33424 2.51775 8.63447 2.51775 8.99998C2.51775 9.36548 2.51738 9.66571 2.51708 9.91804C2.51588 10.9031 2.51558 11.1582 2.54124 11.7186C2.57319 12.421 2.61156 12.9373 2.72874 13.3263C2.8414 13.7004 2.96775 14.081 3.38025 14.5405C3.79275 14.9998 4.19062 15.2079 4.69743 15.3608C5.20424 15.5136 5.84121 15.5464 6.39431 15.5716C7.02167 15.6003 7.27031 15.6002 8.58626 15.5998H9.11776C9.46934 15.5998 9.76052 15.6001 10.0068 15.6004C11.016 15.6015 11.2708 15.6018 11.8366 15.5758C12.5391 15.5439 13.0554 15.5055 13.4444 15.3884C13.8184 15.2757 14.1991 15.1494 14.6584 14.7368C15.1178 14.3244 15.3259 13.9264 15.4788 13.4197C15.6316 12.9128 15.6645 12.2758 15.6897 11.7228C15.7183 11.0962 15.7182 10.8483 15.7179 9.53694V9.53681L15.7178 9.00042V8.46892C15.7182 7.15297 15.7183 6.90433 15.6896 6.27697C15.6644 5.72387 15.6315 5.0869 15.4788 4.58009C15.3259 4.07329 15.1178 3.67541 14.6584 3.26291C14.1991 2.85041 13.8183 2.72406 13.4444 2.6114C13.0552 2.49422 12.539 2.45585 11.8365 2.4239C11.2707 2.39798 11.016 2.39826 10.0068 2.39936C9.76053 2.39964 9.46935 2.39996 9.11776 2.39996L8.58614 2.39987C7.2703 2.39952 7.02166 2.39945 6.39431 2.42807C5.84121 2.4533 5.20424 2.48615 4.69743 2.639C4.19062 2.79186 3.79275 2.99994 3.38025 3.45932C2.96775 3.9187 2.8414 4.29938 2.72874 4.67339C2.61156 5.06244 2.57319 5.57868 2.54124 6.2812C2.51558 6.84152 2.51588 7.09676 2.51708 8.0819ZM9.11764 6.30013C7.62658 6.30013 6.41783 7.50888 6.41783 8.99994C6.41783 10.491 7.62658 11.6997 9.11764 11.6997C10.6087 11.6997 11.8174 10.491 11.8174 8.99994C11.8174 7.50888 10.6087 6.30013 9.11764 6.30013ZM5.21783 8.99994C5.21783 6.84613 6.96383 5.10013 9.11764 5.10013C11.2714 5.10013 13.0174 6.84613 13.0174 8.99994C13.0174 11.1537 11.2714 12.8997 9.11764 12.8997C6.96383 12.8997 5.21783 11.1537 5.21783 8.99994ZM13.2813 5.73631C13.7784 5.73631 14.1813 5.33338 14.1813 4.83631C14.1813 4.33926 13.7784 3.93631 13.2813 3.93631C12.7843 3.93631 12.3813 4.33926 12.3813 4.83631C12.3813 5.33338 12.7843 5.73631 13.2813 5.73631Z" fill="white"/>
</svg>
