<svg width="27" height="26" viewBox="0 0 27 26" fill="none" xmlns="http://www.w3.org/2000/svg">
<path d="M1.39807 6.8179C1.39807 16.8905 9.83341 25.0565 20.2382 25.0565H23.0642C23.8137 25.0565 24.5325 24.7683 25.0625 24.2552C25.5924 23.7422 25.8902 23.0463 25.8902 22.3207V20.6525C25.8902 20.0251 25.4493 19.478 24.8201 19.326L19.2648 17.9812C18.7121 17.8474 18.1318 18.048 17.7915 18.4882L16.5731 20.0604C16.2189 20.5176 15.6073 20.7194 15.0534 20.5224C12.9971 19.7906 11.1298 18.6348 9.58068 17.1352C8.03155 15.6355 6.83767 13.8278 6.08172 11.8372C5.87824 11.301 6.08674 10.7088 6.559 10.3659L8.18302 9.1865C8.63895 8.85698 8.84493 8.29402 8.70677 7.76023L7.31763 2.38227C7.24119 2.08643 7.06482 1.8238 6.81655 1.63611C6.56827 1.44841 6.26233 1.34641 5.94733 1.34631H4.22408C3.47458 1.34631 2.75577 1.63455 2.22579 2.14761C1.69581 2.66067 1.39807 3.35653 1.39807 4.08211V6.8179Z" stroke="white" stroke-width="1.5" stroke-linecap="round" stroke-linejoin="round"/>
</svg>
