<svg width="17" height="15" viewBox="0 0 17 15" fill="none" xmlns="http://www.w3.org/2000/svg">
<path fill-rule="evenodd" clip-rule="evenodd" d="M7.89777 4.63557C7.89777 2.61782 9.53301 0.9823 11.5497 0.9823C12.7969 0.9823 13.7827 1.60693 14.416 2.49713L14.3377 2.30274C15.0556 2.162 15.7303 1.89945 16.3393 1.53811C16.1038 2.27432 15.6044 2.8928 14.9534 3.28256C15.5915 3.20609 16.1985 3.03693 16.7635 2.78656L16.7622 2.78859C16.3406 3.41992 15.8061 3.97411 15.1903 4.41936L15.1617 4.34851C15.1953 4.56512 15.2124 4.78357 15.2124 5.00097C15.2124 9.38153 11.8758 14.4695 5.74321 14.4695C3.86444 14.4695 2.11474 13.9191 0.641797 12.9741C0.40938 12.8249 0.341856 12.5157 0.490977 12.2832C0.497023 12.2738 0.503333 12.2647 0.50989 12.2558C0.587916 12.0805 0.773156 11.9685 0.973683 11.9921C2.15779 12.1316 3.34502 11.9692 4.37455 11.4704C3.34688 11.0859 2.54213 10.2452 2.20589 9.19623C2.15744 9.04508 2.1922 8.87959 2.29736 8.76071C2.3226 8.73219 2.35099 8.70736 2.38173 8.6865C1.58598 8.02567 1.07941 7.02891 1.07941 5.91372V5.87313C1.07941 5.71367 1.1638 5.56612 1.30123 5.48527C1.38531 5.4358 1.48156 5.41582 1.57553 5.42549C1.27626 4.89977 1.10513 4.2913 1.10513 3.64351C1.10513 3.07949 1.11012 2.3971 1.4902 1.78443C1.57459 1.64841 1.7197 1.57304 1.86873 1.57161C2.04856 1.53009 2.24459 1.59013 2.36911 1.74283C3.71782 3.39673 5.67565 4.53052 7.9015 4.80169C7.89903 4.74664 7.89777 4.69126 7.89777 4.63557ZM5.74321 13.4695C4.65467 13.4695 3.61532 13.2632 2.66006 12.8881C3.80853 12.7509 4.91783 12.3373 5.85684 11.6014C6.00677 11.4839 6.06647 11.2847 6.00592 11.1041C5.94536 10.9236 5.77766 10.8006 5.58721 10.7973C4.6566 10.7809 3.83963 10.2928 3.3664 9.56176C3.64445 9.55132 3.91525 9.50953 4.17558 9.43914C4.37716 9.38463 4.51476 9.1986 4.50787 8.9899C4.50099 8.78119 4.35142 8.60464 4.14669 8.56354C3.12692 8.35882 2.31511 7.57964 2.06184 6.57865C2.34293 6.65962 2.63807 6.70742 2.94246 6.71738C3.14327 6.72395 3.32411 6.59661 3.38559 6.40533C3.44708 6.21405 3.37431 6.00519 3.20728 5.89352C2.48202 5.40866 2.00513 4.58082 2.00513 3.64351C2.00513 3.35691 2.01051 3.10807 2.04221 2.88592C3.66547 4.60942 5.92791 5.72502 8.45383 5.8522C8.61019 5.86007 8.76122 5.79425 8.86189 5.67434C8.96257 5.55444 9.00126 5.3943 8.96645 5.24165C8.9217 5.04542 8.89777 4.84316 8.89777 4.63557C8.89777 3.16983 10.0856 1.9823 11.5497 1.9823C13.1017 1.9823 14.2124 3.41635 14.2124 5.00097C14.2124 8.95152 11.2087 13.4695 5.74321 13.4695Z" fill="white"/>
</svg>
